<?xml version="1.0" encoding="utf-8"?>
<!-- Generator: Adobe Illustrator 16.0.0, SVG Export Plug-In . SVG Version: 6.00 Build 0)  -->
<!DOCTYPE svg PUBLIC "-//W3C//DTD SVG 1.1//EN" "http://www.w3.org/Graphics/SVG/1.1/DTD/svg11.dtd">
<svg version="1.1" id="Layer_1" xmlns="http://www.w3.org/2000/svg" xmlns:xlink="http://www.w3.org/1999/xlink" x="0px" y="0px"
	 width="452.051px" height="216.619px" viewBox="0 0 452.051 216.619" enable-background="new 0 0 452.051 216.619"
	 xml:space="preserve">
<g>
	<g>
		<path fill="#333333" d="M95.452,196.725l-0.169,2.367c-1.466,1.014-3.494,1.521-6.084,1.521c-3.38,0-6.253-1.129-8.619-3.381
			s-3.549-6.309-3.549-12.168v-2.365c-2.255,5.746-6.676,10.168-13.267,13.266c-6.591,3.098-13.718,4.648-21.378,4.648
			c-8.226,0-14.677-1.746-19.351-5.24c-4.677-3.49-7.014-8.391-7.014-14.703c0-6.646,2.421-11.885,7.267-15.717
			c4.843-3.828,12.786-6.76,23.829-8.787l29.913-5.578V140.11c0-7.885-2.311-14.027-6.929-18.421
			c-4.621-4.394-11.268-6.591-19.942-6.591c-7.774,0-14.141,1.579-19.097,4.732c-4.959,3.155-8.677,8.226-11.154,15.21l-2.197-1.69
			c2.591-6.985,6.533-12.168,11.83-15.548c5.294-3.38,12.168-5.07,20.618-5.07c9.575,0,16.9,2.339,21.97,7.014
			c5.07,4.676,7.605,11.465,7.605,20.364v45.968c0,4.057,0.816,7.098,2.451,9.127c1.632,2.027,3.914,3.041,6.845,3.041
			C91.958,198.246,94.1,197.74,95.452,196.725z M58.356,195.543c5.239-1.801,9.66-4.59,13.267-8.365
			c3.604-3.773,5.408-8.367,5.408-13.774v-20.448l-28.054,5.238c-10.816,2.027-18.563,4.846-23.237,8.45
			c-4.677,3.606-7.014,8.28-7.014,14.026c0,5.521,2.168,9.832,6.506,12.93c4.336,3.1,10.335,4.646,17.999,4.646
			C48.074,198.246,53.118,197.346,58.356,195.543z"/>
		<path fill="#333333" d="M143.448,116.789l-1.521,2.028c-1.241-1.238-2.62-2.168-4.141-2.789c-1.521-0.618-3.747-0.93-6.676-0.93
			c-5.07,0-9.691,1.635-13.858,4.901c-4.169,3.269-7.465,7.579-9.886,12.928c-2.424,5.353-3.634,10.959-3.634,16.815v49.179h-2.704
			v-84.5h2.704v21.97c1.915-6.871,5.35-12.533,10.309-16.985c4.957-4.449,10.758-6.675,17.407-6.675
			C136.743,112.732,140.744,114.084,143.448,116.789z"/>
		<path fill="#333333" d="M175.048,150.758l-22.308,20.787v27.377h-2.704V75.552h2.704v92.274l57.46-53.404h4.056l-37.18,34.476
			l38.025,50.023h-3.38L175.048,150.758z"/>
	</g>
</g>
<g>
	<path id="path28_2_" connector-curvature="0" fill="none" stroke="#333333" stroke-width="12" d="M333.769,143.865
		c0,28.564-23.155,51.723-51.721,51.723c-28.567,0-51.723-23.156-51.723-51.723c0-28.563,23.155-51.72,51.722-51.72
		C310.613,92.143,333.769,115.302,333.769,143.865L333.769,143.865z"/>
	<path id="path34_1_" connector-curvature="0" opacity="0.7" fill="#333333" d="M241.945,143.865
		c0,22.148,17.956,40.102,40.103,40.102c22.147,0,40.103-17.953,40.103-40.102h-21.289l-0.215-14.773l-18.813-10.614l-18.598,10.99
		v14.397"/>
</g>
<g>
	<path fill="#333333" d="M432.5,109.601l-11.661,9.464c-3.38-7.436-7.409-12.701-12.083-15.801
		c-4.677-3.098-11.069-4.647-19.182-4.647c-8.563,0-15.295,1.774-20.195,5.323c-4.901,3.549-7.352,8.086-7.352,13.604
		c0,3.607,0.956,6.591,2.873,8.957c1.914,2.366,5.097,4.423,9.548,6.168c4.45,1.749,10.618,3.296,18.506,4.648
		c14.759,2.479,25.207,6.197,31.35,11.153c6.14,4.959,9.211,11.83,9.211,20.618c0,6.312-1.775,11.859-5.324,16.646
		c-3.549,4.79-8.593,8.508-15.125,11.154c-6.536,2.646-14.085,3.972-22.646,3.972c-11.268,0-20.871-2.197-28.814-6.592
		c-7.942-4.394-14-10.251-18.167-17.575l11.661-9.465c3.042,6.649,7.521,11.804,13.436,15.464
		c5.914,3.662,13.321,5.492,22.223,5.492c8.788,0,15.772-1.605,20.956-4.816c5.182-3.211,7.774-7.745,7.774-13.604
		c0-4.956-2.255-8.898-6.76-11.83c-4.508-2.928-12.506-5.407-23.998-7.436c-14.872-2.591-25.408-6.309-31.604-11.154
		c-6.197-4.843-9.295-11.603-9.295-20.28c0-5.97,1.69-11.491,5.07-16.562s8.223-9.097,14.534-12.084
		c6.308-2.983,13.631-4.479,21.97-4.479C409.348,85.94,423.712,93.828,432.5,109.601z"/>
</g>
<g>
	<path fill="#333333" d="M19.377,81.863V24.616h2.21c0.368,0,0.665,0.079,0.892,0.234c0.227,0.156,0.354,0.432,0.383,0.829
		l0.382,6.545c1.87-2.55,4.059-4.575,6.566-6.077c2.507-1.501,5.319-2.252,8.436-2.252c5.213,0,9.265,1.799,12.155,5.397
		c2.89,3.598,4.335,8.996,4.335,16.192c0,3.088-0.404,5.971-1.211,8.648c-0.808,2.678-1.991,5.001-3.549,6.97
		c-1.559,1.97-3.478,3.521-5.759,4.654c-2.281,1.133-4.909,1.7-7.884,1.7c-2.89,0-5.383-0.525-7.48-1.573s-3.91-2.606-5.44-4.675
		v20.655H19.377z M37.1,27.166c-2.805,0-5.348,0.729-7.629,2.188c-2.281,1.459-4.3,3.492-6.056,6.099v22.185
		c1.615,2.437,3.407,4.151,5.376,5.143c1.969,0.992,4.214,1.488,6.736,1.488c2.493,0,4.675-0.453,6.545-1.36
		c1.87-0.906,3.435-2.188,4.696-3.846c1.26-1.657,2.21-3.64,2.847-5.95c0.638-2.309,0.957-4.852,0.957-7.629
		c0-6.29-1.155-10.915-3.464-13.876C44.799,28.646,41.462,27.166,37.1,27.166z"/>
	<path fill="#333333" d="M80.959,23.936c3.031,0,5.744,0.517,8.139,1.551c2.394,1.034,4.413,2.5,6.056,4.398
		c1.643,1.898,2.896,4.187,3.761,6.864c0.864,2.678,1.296,5.674,1.296,8.989s-0.433,6.305-1.296,8.968
		c-0.865,2.663-2.118,4.944-3.761,6.842c-1.644,1.898-3.662,3.357-6.056,4.377c-2.395,1.02-5.107,1.53-8.139,1.53
		c-3.032,0-5.745-0.51-8.139-1.53c-2.395-1.02-4.42-2.479-6.077-4.377c-1.658-1.898-2.918-4.179-3.783-6.842
		c-0.865-2.663-1.296-5.653-1.296-8.968s0.432-6.311,1.296-8.989c0.864-2.677,2.125-4.965,3.783-6.864
		c1.657-1.898,3.683-3.364,6.077-4.398C75.214,24.453,77.927,23.936,80.959,23.936z M80.959,64.269c2.521,0,4.724-0.432,6.608-1.296
		c1.884-0.864,3.457-2.104,4.718-3.719c1.26-1.615,2.203-3.563,2.826-5.844c0.623-2.28,0.935-4.838,0.935-7.671
		c0-2.805-0.312-5.355-0.935-7.65c-0.624-2.295-1.566-4.257-2.826-5.886c-1.261-1.629-2.833-2.883-4.718-3.761
		c-1.884-0.878-4.087-1.317-6.608-1.317c-2.522,0-4.725,0.439-6.609,1.317c-1.885,0.878-3.457,2.132-4.718,3.761
		c-1.261,1.629-2.21,3.591-2.847,5.886c-0.638,2.295-0.957,4.845-0.957,7.65c0,2.833,0.319,5.391,0.957,7.671
		c0.637,2.281,1.586,4.229,2.847,5.844c1.261,1.615,2.833,2.854,4.718,3.719C76.234,63.837,78.437,64.269,80.959,64.269z"/>
	<path fill="#333333" d="M104.885,24.616h3.103c0.396,0,0.722,0.106,0.978,0.319c0.255,0.212,0.425,0.446,0.51,0.701l10.667,33.363
		c0.198,0.652,0.354,1.275,0.468,1.87c0.113,0.595,0.226,1.19,0.34,1.785c0.142-0.595,0.297-1.19,0.467-1.785
		c0.17-0.595,0.368-1.218,0.595-1.87l11.348-33.66c0.198-0.623,0.595-0.935,1.19-0.935h1.657c0.623,0,1.034,0.312,1.233,0.935
		l11.177,33.66c0.425,1.275,0.765,2.507,1.02,3.697c0.113-0.595,0.234-1.197,0.361-1.806c0.127-0.609,0.304-1.239,0.531-1.891
		l10.71-33.363c0.227-0.68,0.708-1.02,1.445-1.02h2.975l-14.152,42.288h-2.975c-0.454,0-0.78-0.297-0.978-0.893l-11.603-34.34
		c-0.142-0.425-0.27-0.85-0.382-1.275c-0.114-0.425-0.212-0.85-0.298-1.275c-0.085,0.425-0.177,0.85-0.276,1.275
		c-0.1,0.425-0.22,0.85-0.361,1.275l-11.73,34.34c-0.17,0.595-0.51,0.893-1.02,0.893h-2.848L104.885,24.616z"/>
	<path fill="#333333" d="M189.417,23.936c2.38,0,4.583,0.411,6.609,1.232c2.025,0.822,3.783,2.019,5.27,3.591
		c1.488,1.572,2.649,3.506,3.485,5.801c0.835,2.295,1.254,4.93,1.254,7.905c0,0.624-0.092,1.048-0.276,1.275
		c-0.184,0.227-0.474,0.34-0.87,0.34h-30.517v0.807c0,3.174,0.368,5.965,1.105,8.373c0.737,2.409,1.785,4.427,3.145,6.056
		c1.36,1.63,3.003,2.855,4.93,3.676c1.926,0.822,4.08,1.232,6.46,1.232c2.125,0,3.966-0.233,5.525-0.701
		c1.558-0.467,2.869-0.991,3.931-1.572c1.062-0.581,1.905-1.105,2.529-1.573c0.623-0.467,1.077-0.701,1.36-0.701
		c0.368,0,0.651,0.142,0.85,0.425l1.105,1.36c-0.68,0.85-1.58,1.644-2.699,2.38c-1.12,0.737-2.366,1.367-3.74,1.891
		c-1.375,0.525-2.848,0.942-4.42,1.254c-1.573,0.312-3.152,0.468-4.739,0.468c-2.89,0-5.525-0.503-7.905-1.509
		c-2.38-1.005-4.422-2.472-6.126-4.399c-1.705-1.926-3.022-4.285-3.953-7.076c-0.931-2.791-1.396-5.985-1.396-9.584
		c0-3.031,0.432-5.829,1.296-8.394c0.864-2.564,2.11-4.774,3.74-6.63c1.629-1.855,3.626-3.308,5.992-4.356
		C183.729,24.46,186.414,23.936,189.417,23.936z M189.479,26.953c-2.179,0-4.131,0.34-5.856,1.02
		c-1.726,0.68-3.218,1.658-4.477,2.933c-1.259,1.275-2.277,2.805-3.055,4.59c-0.778,1.785-1.294,3.783-1.549,5.993h27.838
		c0-2.267-0.312-4.299-0.934-6.099c-0.623-1.799-1.5-3.322-2.631-4.569c-1.131-1.247-2.489-2.203-4.074-2.869
		C193.157,27.287,191.403,26.953,189.479,26.953z"/>
	<path fill="#333333" d="M216.914,66.903V24.616h2.125c0.481,0,0.829,0.1,1.042,0.297c0.212,0.199,0.333,0.539,0.361,1.02
		l0.34,8.925c1.36-3.428,3.173-6.113,5.44-8.054c2.267-1.94,5.058-2.911,8.373-2.911c1.275,0,2.451,0.135,3.527,0.403
		c1.077,0.27,2.097,0.659,3.06,1.169l-0.552,2.805c-0.085,0.454-0.369,0.68-0.85,0.68c-0.17,0-0.411-0.056-0.723-0.17
		c-0.312-0.113-0.701-0.24-1.168-0.382c-0.468-0.142-1.042-0.269-1.721-0.383c-0.68-0.113-1.46-0.17-2.338-0.17
		c-3.202,0-5.83,0.992-7.884,2.975c-2.054,1.983-3.719,4.845-4.994,8.585v27.498H216.914z"/>
	<path fill="#333333" d="M266.595,23.936c2.38,0,4.583,0.411,6.609,1.232c2.025,0.822,3.783,2.019,5.27,3.591
		c1.488,1.572,2.649,3.506,3.485,5.801c0.835,2.295,1.254,4.93,1.254,7.905c0,0.624-0.092,1.048-0.276,1.275
		c-0.184,0.227-0.474,0.34-0.87,0.34H251.55v0.807c0,3.174,0.368,5.965,1.105,8.373c0.737,2.409,1.785,4.427,3.145,6.056
		c1.36,1.63,3.003,2.855,4.93,3.676c1.926,0.822,4.08,1.232,6.46,1.232c2.125,0,3.966-0.233,5.525-0.701
		c1.558-0.467,2.869-0.991,3.931-1.572c1.062-0.581,1.905-1.105,2.529-1.573c0.623-0.467,1.077-0.701,1.36-0.701
		c0.368,0,0.651,0.142,0.85,0.425l1.105,1.36c-0.68,0.85-1.58,1.644-2.699,2.38c-1.12,0.737-2.366,1.367-3.74,1.891
		c-1.375,0.525-2.848,0.942-4.42,1.254c-1.573,0.312-3.152,0.468-4.739,0.468c-2.89,0-5.525-0.503-7.905-1.509
		c-2.38-1.005-4.422-2.472-6.126-4.399c-1.705-1.926-3.022-4.285-3.953-7.076c-0.931-2.791-1.396-5.985-1.396-9.584
		c0-3.031,0.432-5.829,1.296-8.394c0.864-2.564,2.11-4.774,3.74-6.63c1.629-1.855,3.626-3.308,5.992-4.356
		C260.907,24.46,263.591,23.936,266.595,23.936z M266.657,26.953c-2.179,0-4.131,0.34-5.856,1.02
		c-1.726,0.68-3.218,1.658-4.477,2.933c-1.259,1.275-2.277,2.805-3.055,4.59c-0.778,1.785-1.294,3.783-1.549,5.993h27.838
		c0-2.267-0.312-4.299-0.934-6.099c-0.623-1.799-1.5-3.322-2.631-4.569c-1.131-1.247-2.489-2.203-4.074-2.869
		C270.334,27.287,268.581,26.953,266.657,26.953z"/>
	<path fill="#333333" d="M324.082,66.903c-0.701,0-1.105-0.368-1.219-1.105l-0.426-6.672c-1.873,2.55-4.064,4.576-6.576,6.077
		c-2.51,1.502-5.326,2.253-8.445,2.253c-5.191,0-9.243-1.799-12.15-5.398c-2.908-3.598-4.362-8.995-4.362-16.192
		c0-3.088,0.404-5.971,1.213-8.648c0.809-2.678,2-5,3.575-6.97c1.575-1.969,3.503-3.52,5.789-4.654c2.283-1.133,4.914-1.7,7.895-1.7
		c2.863,0,5.346,0.531,7.445,1.594s3.916,2.613,5.449,4.653V5.066h4.037v61.837H324.082z M308.562,64.183
		c2.809,0,5.35-0.722,7.619-2.167c2.27-1.445,4.299-3.456,6.088-6.035V33.668c-1.646-2.408-3.455-4.108-5.428-5.1
		c-1.973-0.992-4.207-1.487-6.705-1.487c-2.496,0-4.682,0.453-6.555,1.36c-1.873,0.907-3.441,2.188-4.703,3.846
		c-1.263,1.657-2.213,3.641-2.852,5.95c-0.639,2.31-0.958,4.852-0.958,7.628c0,6.29,1.164,10.916,3.491,13.876
		C300.887,62.703,304.221,64.183,308.562,64.183z"/>
	<path fill="#333333" d="M357.33,66.903V5.066h4.038l0.042,26.945c1.87-2.493,4.038-4.462,6.503-5.907
		c2.465-1.445,5.241-2.167,8.33-2.167c5.185,0,9.229,1.792,12.134,5.376c2.903,3.584,4.356,8.975,4.356,16.171
		c0,3.088-0.405,5.971-1.214,8.648c-0.809,2.678-2,5.001-3.574,6.97c-1.574,1.97-3.504,3.521-5.787,4.654
		c-2.285,1.133-4.916,1.7-7.895,1.7c-2.951,0-5.49-0.574-7.618-1.722s-3.958-2.84-5.49-5.079l-0.252,5.185
		c-0.085,0.708-0.463,1.062-1.135,1.062H357.33z M375.074,27.166c-2.81,0-5.35,0.722-7.619,2.167
		c-2.271,1.445-4.3,3.457-6.087,6.035v22.312c1.617,2.438,3.405,4.144,5.363,5.122s4.214,1.466,6.769,1.466
		c2.497,0,4.682-0.453,6.555-1.36c1.873-0.906,3.44-2.188,4.703-3.846c1.263-1.657,2.213-3.64,2.852-5.95
		c0.64-2.309,0.959-4.852,0.959-7.629c0-6.29-1.164-10.915-3.49-13.876C382.751,28.646,379.416,27.166,375.074,27.166z"/>
	<path fill="#333333" d="M411.772,80.503c-0.17,0.396-0.39,0.722-0.658,0.978c-0.271,0.255-0.659,0.382-1.169,0.382h-2.891
		l7.438-16.532L396.6,24.616h3.358c0.425,0,0.757,0.106,0.998,0.319c0.24,0.212,0.418,0.446,0.531,0.701l14.237,32.895
		c0.171,0.425,0.319,0.857,0.446,1.296c0.128,0.439,0.248,0.886,0.361,1.339c0.142-0.453,0.29-0.899,0.446-1.339
		c0.155-0.439,0.319-0.871,0.489-1.296l14.067-32.895c0.142-0.312,0.34-0.559,0.595-0.744c0.255-0.184,0.538-0.276,0.851-0.276
		h3.103L411.772,80.503z"/>
</g>
</svg>
