<?xml version="1.0" standalone="no"?>
<!DOCTYPE svg PUBLIC "-//W3C//DTD SVG 20010904//EN"
 "http://www.w3.org/TR/2001/REC-SVG-20010904/DTD/svg10.dtd">
<svg version="1.0" xmlns="http://www.w3.org/2000/svg"
 width="514.000000pt" height="514.000000pt" viewBox="0 0 514.000000 514.000000"
 preserveAspectRatio="xMidYMid meet">
<metadata>
Created by potrace 1.11, written by Peter Selinger 2001-2013
</metadata>
<g transform="translate(0.000000,514.000000) scale(0.100000,-0.100000)"
fill="#000000" stroke="none">
<path d="M2429 4946 c-2 -2 -43 -6 -91 -10 -320 -24 -700 -149 -995 -327 -443
-267 -784 -659 -985 -1133 -69 -162 -136 -395 -158 -551 -6 -44 -14 -91 -17
-105 -2 -14 -6 -119 -8 -235 -4 -244 7 -355 60 -605 2 -8 8 -27 14 -43 6 -15
9 -27 7 -27 -8 0 69 -227 103 -305 132 -303 303 -552 536 -780 112 -111 121
-118 250 -215 149 -111 287 -190 510 -291 104 -47 344 -116 495 -143 144 -26
268 -36 430 -36 119 0 155 2 280 15 346 36 730 177 1042 384 74 49 142 96 149
103 8 7 27 23 42 35 100 78 229 207 366 368 52 63 195 282 243 375 120 232
212 501 244 720 3 19 7 46 9 60 27 158 27 560 1 686 -2 12 -7 39 -10 60 -64
402 -251 809 -519 1131 -182 218 -355 365 -632 540 -11 7 -68 38 -127 68 -258
132 -493 203 -828 250 -48 7 -405 16 -411 11z m366 -509 c11 -2 41 -7 66 -11
326 -47 646 -189 912 -404 358 -288 620 -740 682 -1177 4 -27 10 -59 12 -70
10 -41 11 -372 2 -435 -5 -36 -12 -83 -15 -105 -10 -78 -53 -241 -88 -339 -68
-186 -171 -373 -297 -533 -221 -283 -547 -511 -894 -628 -62 -20 -228 -62
-275 -69 -19 -2 -56 -8 -82 -11 -99 -15 -304 -20 -393 -10 -61 6 -147 17 -165
20 -17 3 -83 15 -115 21 -101 19 -330 105 -455 171 -184 98 -321 201 -474 356
-260 264 -434 590 -506 947 -30 146 -35 202 -35 380 0 238 24 393 91 597 36
109 117 295 141 324 7 8 13 19 13 22 0 15 110 177 175 257 257 319 614 548
1011 649 92 23 122 29 184 38 25 3 65 9 90 13 47 7 380 5 415 -3z"/>
<path d="M2305 3450 c-137 -82 -310 -184 -382 -227 l-133 -77 -2 -301 -3 -300
-440 0 -440 0 1 -55 c3 -306 106 -621 289 -890 271 -398 712 -665 1185 -717
128 -14 364 -8 480 12 593 106 1070 505 1286 1075 53 140 89 320 99 490 l4 85
-440 0 c-243 0 -443 3 -445 7 -2 4 -6 132 -9 285 -2 153 -4 290 -4 306 -1 15
-5 27 -10 27 -5 0 -53 25 -107 56 -152 86 -412 233 -456 257 -21 12 -47 27
-56 32 -76 45 -152 85 -159 84 -4 0 -120 -67 -258 -149z"/>
</g>
</svg>
